ffmpeg started on 2016-12-03 at 15:46:36
Report written to "Output/x264/results/ffmpeg/old_town_cross_2160p50placebo13000k.log"
Command line:
Tools/ffmpeg/ffmpeg -benchmark -y -i Input/y4m/old_town_cross_2160p50.y4m -c:v libx264 -preset placebo -b:v 13000k -an Output/x264/encoded/old_town_cross_2160p50placebo13000k.mkv
ffmpeg version N-82227-gdb23fde Copyright (c) 2000-2016 the FFmpeg developers
  built with gcc 5.4.0 (Ubuntu 5.4.0-6ubuntu1~16.04.2) 20160609
  configuration: --prefix=/home/jaroslav/ffmpeg_build --pkg-config-flags=--static --extra-cflags=-I/home/jaroslav/ffmpeg_build/include --extra-ldflags=-L/home/jaroslav/ffmpeg_build/lib --bindir=/home/jaroslav/bin --enable-gpl --enable-libass --enable-libfdk-aac --enable-libfreetype --enable-libmp3lame --enable-libopus --enable-libtheora --enable-libvorbis --enable-libvpx --enable-libx264 --enable-libx265 --enable-nvenc --enable-libmfx --enable-libxvid --enable-libgsm --enable-libopencore-amrnb --enable-version3 --enable-nonfree
  libavutil      55. 35.100 / 55. 35.100
  libavcodec     57. 66.101 / 57. 66.101
  libavformat    57. 57.100 / 57. 57.100
  libavdevice    57.  2.100 / 57.  2.100
  libavfilter     6. 66.100 /  6. 66.100
  libswscale      4.  3.100 /  4.  3.100
  libswresample   2.  4.100 /  2.  4.100
  libpostproc    54.  2.100 / 54.  2.100
Input #0, yuv4mpegpipe, from 'Input/y4m/old_town_cross_2160p50.y4m':
  Duration: 00:00:10.00, start: 0.000000, bitrate: 4976642 kb/s
    Stream #0:0: Video: rawvideo (I420 / 0x30323449), yuv420p(progressive), 3840x2160, SAR 1:1 DAR 16:9, 50 fps, 50 tbr, 50 tbn, 50 tbc
[libx264 @ 0x3292120] using SAR=1/1
[libx264 @ 0x3292120] DPB size (16 frames, 518400 mbs) > level limit (5 frames, 184320 mbs)
[libx264 @ 0x3292120] using cpu capabilities: MMX2 SSE2Fast SSSE3 SSE4.2 AVX FMA3 AVX2 LZCNT BMI2
[libx264 @ 0x3292120] profile High, level 5.2
[libx264 @ 0x3292120] 264 - core 148 - H.264/MPEG-4 AVC codec - Copyleft 2003-2016 - http://www.videolan.org/x264.html - options: cabac=1 ref=16 deblock=1:0:0 analyse=0x3:0x133 me=tesa subme=11 psy=1 psy_rd=1.00:0.00 mixed_ref=1 me_range=24 chroma_me=1 trellis=2 8x8dct=1 cqm=0 deadzone=21,11 fast_pskip=0 chroma_qp_offset=-2 threads=6 lookahead_threads=1 sliced_threads=0 nr=0 decimate=1 interlaced=0 bluray_compat=0 constrained_intra=0 bframes=16 b_pyramid=2 b_adapt=2 b_bias=0 direct=3 weightb=1 open_gop=0 weightp=2 keyint=250 keyint_min=25 scenecut=40 intra_refresh=0 rc_lookahead=60 rc=abr mbtree=1 bitrate=13000 ratetol=1.0 qcomp=0.60 qpmin=0 qpmax=69 qpstep=4 ip_ratio=1.40 aq=1:1.00
Output #0, matroska, to 'Output/x264/encoded/old_town_cross_2160p50placebo13000k.mkv':
  Metadata:
    encoder         : Lavf57.57.100
    Stream #0:0: Video: h264 (libx264) (H264 / 0x34363248), yuv420p, 3840x2160 [SAR 1:1 DAR 16:9], q=-1--1, 13000 kb/s, 50 fps, 1k tbn, 50 tbc
    Metadata:
      encoder         : Lavc57.66.101 libx264
    Side data:
      cpb: bitrate max/min/avg: 0/0/13000000 buffer size: 0 vbv_delay: -1
Stream mapping:
  Stream #0:0 -> #0:0 (rawvideo (native) -> h264 (libx264))
Press [q] to stop, [?] for help
frame=   58 fps=0.0 q=0.0 size=       0kB time=00:00:00.00 bitrate=N/A speed=   0x    frame=   84 fps=3.3 q=0.0 size=       0kB time=00:00:00.00 bitrate=N/A speed=   0x    frame=   89 fps=3.1 q=31.0 size=       1kB time=-00:00:00.01 bitrate=N/A speed=N/A    frame=   90 fps=2.2 q=31.0 size=       1kB time=00:00:00.00 bitrate=5888.0kbits/s speed=2.42e-05x    frame=   91 fps=2.1 q=31.0 size=       1kB time=00:00:00.02 bitrate= 280.4kbits/s speed=0.000484x    frame=   92 fps=2.0 q=31.0 size=       1kB time=00:00:00.04 bitrate= 143.6kbits/s speed=0.000909x    frame=   96 fps=1.7 q=31.0 size=       1kB time=00:00:00.12 bitrate=  48.7kbits/s speed=0.00212x    frame=   97 fps=1.6 q=31.0 size=       1kB time=00:00:00.14 bitrate=  41.8kbits/s speed=0.00237x    frame=  102 fps=1.5 q=34.0 size=       1kB time=00:00:00.24 bitrate=  24.4kbits/s speed=0.00349x    frame=  103 fps=1.5 q=35.0 size=       1kB time=00:00:00.26 bitrate=  22.6kbits/s speed=0.0037x    frame=  106 fps=1.4 q=38.0 size=       1kB time=00:00:00.32 bitrate=  18.3kbits/s speed=0.00416x    frame=  108 fps=1.3 q=47.0 size=       1kB time=00:00:00.36 bitrate=  16.3kbits/s speed=0.00423x    frame=  112 fps=1.3 q=41.0 size=       1kB time=00:00:00.44 bitrate=  13.4kbits/s speed=0.00511x    frame=  114 fps=1.3 q=42.0 size=       1kB time=00:00:00.48 bitrate=  12.2kbits/s speed=0.00535x    frame=  115 fps=1.3 q=43.0 size=       1kB time=00:00:00.50 bitrate=  11.8kbits/s speed=0.00547x    frame=  116 fps=1.2 q=44.0 size=       1kB time=00:00:00.52 bitrate=  11.3kbits/s speed=0.00545x    frame=  120 fps=1.2 q=46.0 size=       1kB time=00:00:00.60 bitrate=   9.8kbits/s speed=0.00623x    frame=  121 fps=1.2 q=47.0 size=       1kB time=00:00:00.62 bitrate=   9.5kbits/s speed=0.00627x    frame=  122 fps=1.2 q=44.0 size=       1kB time=00:00:00.64 bitrate=   9.2kbits/s speed=0.00618x    frame=  127 fps=1.2 q=46.0 size=       1kB time=00:00:00.74 bitrate=   7.9kbits/s speed=0.00709x    frame=  128 fps=1.1 q=46.0 size=       1kB time=00:00:00.76 bitrate=   7.7kbits/s speed=0.00678x    frame=  129 fps=1.1 q=45.0 size=       1kB time=00:00:00.78 bitrate=   7.5kbits/s speed=0.00691x    frame=  130 fps=1.1 q=45.0 size=       1kB time=00:00:00.80 bitrate=   7.4kbits/s speed=0.00702x    frame=  134 fps=1.1 q=42.0 size=       1kB time=00:00:00.88 bitrate=   6.7kbits/s speed=0.00736x    frame=  135 fps=1.1 q=43.0 size=       1kB time=00:00:00.90 bitrate=   6.5kbits/s speed=0.00748x    frame=  136 fps=1.1 q=43.0 size=       1kB time=00:00:00.92 bitrate=   6.4kbits/s speed=0.00758x    frame=  140 fps=1.0 q=42.0 size=       1kB time=00:00:01.00 bitrate=   5.9kbits/s speed=0.0075x    frame=  141 fps=1.1 q=42.0 size=       1kB time=00:00:01.02 bitrate=   5.8kbits/s speed=0.00761x    frame=  142 fps=1.0 q=42.0 size=       1kB time=00:00:01.04 bitrate=   5.7kbits/s speed=0.0077x    frame=  146 fps=1.0 q=41.0 size=       1kB time=00:00:01.12 bitrate=   5.3kbits/s speed=0.0079x    frame=  147 fps=1.0 q=41.0 size=       1kB time=00:00:01.14 bitrate=   5.2kbits/s speed=0.00794x    frame=  148 fps=1.0 q=41.0 size=       1kB time=00:00:01.16 bitrate=   5.1kbits/s speed=0.00804x    frame=  149 fps=1.0 q=41.0 size=       1kB time=00:00:01.18 bitrate=   5.0kbits/s speed=0.00808x    frame=  150 fps=1.0 q=41.0 size=       1kB time=00:00:01.20 bitrate=   4.9kbits/s speed=0.00765x    frame=  151 fps=1.0 q=41.0 size=       1kB time=00:00:01.22 bitrate=   4.8kbits/s speed=0.00773x    frame=  152 fps=1.0 q=40.0 size=       1kB time=00:00:01.24 bitrate=   4.7kbits/s speed=0.0078x    frame=  156 fps=0.9 q=40.0 size=       1kB time=00:00:01.32 bitrate=   4.5kbits/s speed=0.00787x    frame=  157 fps=0.9 q=40.0 size=       1kB time=00:00:01.34 bitrate=   4.4kbits/s speed=0.00792x    frame=  158 fps=0.9 q=40.0 size=       1kB time=00:00:01.36 bitrate=   4.3kbits/s speed=0.00795x    frame=  159 fps=0.9 q=40.0 size=       1kB time=00:00:01.38 bitrate=   4.3kbits/s speed=0.008x    frame=  160 fps=0.9 q=39.0 size=       1kB time=00:00:01.40 bitrate=   4.2kbits/s speed=0.00755x    frame=  161 fps=0.9 q=39.0 size=       1kB time=00:00:01.42 bitrate=   4.1kbits/s speed=0.00761x    frame=  162 fps=0.9 q=39.0 size=       1kB time=00:00:01.44 bitrate=   4.1kbits/s speed=0.00765x    frame=  166 fps=0.8 q=39.0 size=       1kB time=00:00:01.52 bitrate=   3.9kbits/s speed=0.00755x    frame=  167 fps=0.8 q=39.0 size=       1kB time=00:00:01.54 bitrate=   3.8kbits/s speed=0.00758x    frame=  168 fps=0.8 q=39.0 size=       1kB time=00:00:01.56 bitrate=   3.8kbits/s speed=0.00763x    frame=  170 fps=0.8 q=38.0 size=       1kB time=00:00:01.60 bitrate=   3.7kbits/s speed=0.00732x    frame=  171 fps=0.8 q=38.0 size=       1kB time=00:00:01.62 bitrate=   3.6kbits/s speed=0.00735x    frame=  172 fps=0.8 q=38.0 size=       1kB time=00:00:01.64 bitrate=   3.6kbits/s speed=0.00739x    frame=  176 fps=0.8 q=38.0 size=       1kB time=00:00:01.72 bitrate=   3.4kbits/s speed=0.00738x    frame=  177 fps=0.7 q=38.0 size=       1kB time=00:00:01.74 bitrate=   3.4kbits/s speed=0.00735x    frame=  178 fps=0.7 q=38.0 size=       1kB time=00:00:01.76 bitrate=   3.3kbits/s speed=0.00737x    frame=  179 fps=0.7 q=38.0 size=       1kB time=00:00:01.78 bitrate=   3.3kbits/s speed=0.00742x    frame=  180 fps=0.7 q=38.0 size=       1kB time=00:00:01.80 bitrate=   3.3kbits/s speed=0.00741x    frame=  181 fps=0.7 q=37.0 size=       1kB time=00:00:01.82 bitrate=   3.2kbits/s speed=0.00708x    frame=  182 fps=0.7 q=37.0 size=       1kB time=00:00:01.84 bitrate=   3.2kbits/s speed=0.00712x    frame=  183 fps=0.7 q=37.0 size=       1kB time=00:00:01.86 bitrate=   3.2kbits/s speed=0.00716x    frame=  185 fps=0.7 q=37.0 size=       1kB time=00:00:01.90 bitrate=   3.1kbits/s speed=0.0073x    frame=  186 fps=0.7 q=36.0 size=       1kB time=00:00:01.92 bitrate=   3.1kbits/s speed=0.00735x    frame=  187 fps=0.7 q=37.0 size=       1kB time=00:00:01.94 bitrate=   3.0kbits/s speed=0.00709x    frame=  188 fps=0.7 q=37.0 size=       1kB time=00:00:01.96 bitrate=   3.0kbits/s speed=0.00707x    frame=  189 fps=0.7 q=37.0 size=       1kB time=00:00:01.98 bitrate=   3.0kbits/s speed=0.00707x    frame=  191 fps=0.7 q=37.0 size=       1kB time=00:00:02.02 bitrate=   2.9kbits/s speed=0.00709x    frame=  192 fps=0.6 q=37.0 size=       1kB time=00:00:02.04 bitrate=   2.9kbits/s speed=0.00688x    frame=  193 fps=0.6 q=37.0 size=       1kB time=00:00:02.06 bitrate=   2.9kbits/s speed=0.00691x    frame=  194 fps=0.6 q=37.0 size=       1kB time=00:00:02.08 bitrate=   2.8kbits/s speed=0.00693x    frame=  197 fps=0.7 q=36.0 size=       1kB time=00:00:02.14 bitrate=   2.8kbits/s speed=0.00709x    frame=  198 fps=0.6 q=36.0 size=       1kB time=00:00:02.16 bitrate=   2.7kbits/s speed=0.00689x    frame=  199 fps=0.6 q=36.0 size=       1kB time=00:00:02.18 bitrate=   2.7kbits/s speed=0.00687x    frame=  200 fps=0.6 q=36.0 size=       1kB time=00:00:02.20 bitrate=   2.7kbits/s speed=0.00682x    frame=  203 fps=0.6 q=36.0 size=       1kB time=00:00:02.26 bitrate=   2.6kbits/s speed=0.00672x    frame=  204 fps=0.6 q=35.0 size=       1kB time=00:00:02.28 bitrate=   2.6kbits/s speed=0.00674x    frame=  205 fps=0.6 q=36.0 size=       1kB time=00:00:02.30 bitrate=   2.6kbits/s speed=0.00677x    frame=  206 fps=0.6 q=36.0 size=       1kB time=00:00:02.32 bitrate=   2.5kbits/s speed=0.00679x    frame=  209 fps=0.6 q=36.0 size=       1kB time=00:00:02.38 bitrate=   2.5kbits/s speed=0.00674x    frame=  210 fps=0.6 q=36.0 size=       1kB time=00:00:02.40 bitrate=   2.5kbits/s speed=0.00651x    frame=  211 fps=0.6 q=35.0 size=       1kB time=00:00:02.42 bitrate=   2.4kbits/s speed=0.00654x    frame=  212 fps=0.6 q=35.0 size=       1kB time=00:00:02.44 bitrate=   2.4kbits/s speed=0.00657x    frame=  216 fps=0.6 q=35.0 size=       1kB time=00:00:02.52 bitrate=   2.3kbits/s speed=0.00651x    frame=  217 fps=0.6 q=35.0 size=       1kB time=00:00:02.54 bitrate=   2.3kbits/s speed=0.00651x    frame=  219 fps=0.6 q=35.0 size=       1kB time=00:00:02.58 bitrate=   2.3kbits/s speed=0.00658x    frame=  221 fps=0.5 q=35.0 size=       1kB time=00:00:02.62 bitrate=   2.2kbits/s speed=0.00637x    frame=  222 fps=0.5 q=35.0 size=       1kB time=00:00:02.64 bitrate=   2.2kbits/s speed=0.0064x    frame=  223 fps=0.5 q=35.0 size=       1kB time=00:00:02.66 bitrate=   2.2kbits/s speed=0.00642x    frame=  227 fps=0.5 q=35.0 size=       1kB time=00:00:02.74 bitrate=   2.1kbits/s speed=0.00639x    frame=  228 fps=0.5 q=35.0 size=       1kB time=00:00:02.76 bitrate=   2.1kbits/s speed=0.00637x    frame=  229 fps=0.5 q=35.0 size=       1kB time=00:00:02.78 bitrate=   2.1kbits/s speed=0.00638x    frame=  230 fps=0.5 q=35.0 size=       1kB time=00:00:02.80 bitrate=   2.1kbits/s speed=0.00641x    frame=  231 fps=0.5 q=35.0 size=       1kB time=00:00:02.82 bitrate=   2.1kbits/s speed=0.00644x    frame=  232 fps=0.5 q=35.0 size=       1kB time=00:00:02.84 bitrate=   2.1kbits/s speed=0.00626x    frame=  233 fps=0.5 q=35.0 size=       1kB time=00:00:02.86 bitrate=   2.1kbits/s speed=0.00628x    frame=  234 fps=0.5 q=34.0 size=       1kB time=00:00:02.88 bitrate=   2.0kbits/s speed=0.0063x    frame=  235 fps=0.5 q=34.0 size=       1kB time=00:00:02.90 bitrate=   2.0kbits/s speed=0.00632x    frame=  237 fps=0.5 q=34.0 size=       1kB time=00:00:02.94 bitrate=   2.0kbits/s speed=0.00639x    frame=  238 fps=0.5 q=34.0 size=       1kB time=00:00:02.96 bitrate=   2.0kbits/s speed=0.00625x    frame=  239 fps=0.5 q=34.0 size=       1kB time=00:00:02.98 bitrate=   2.0kbits/s speed=0.00624x    frame=  240 fps=0.5 q=34.0 size=       1kB time=00:00:03.00 bitrate=   2.0kbits/s speed=0.00614x    frame=  241 fps=0.5 q=34.0 size=       1kB time=00:00:03.02 bitrate=   1.9kbits/s speed=0.00616x    frame=  242 fps=0.5 q=34.0 size=       1kB time=00:00:03.04 bitrate=   1.9kbits/s speed=0.00618x    frame=  245 fps=0.5 q=34.0 size=       1kB time=00:00:03.10 bitrate=   1.9kbits/s speed=0.00625x    frame=  246 fps=0.5 q=34.0 size=       1kB time=00:00:03.12 bitrate=   1.9kbits/s speed=0.00613x    frame=  247 fps=0.5 q=34.0 size=       1kB time=00:00:03.14 bitrate=   1.9kbits/s speed=0.00614x    frame=  248 fps=0.5 q=34.0 size=       1kB time=00:00:03.16 bitrate=   1.9kbits/s speed=0.00614x    frame=  250 fps=0.5 q=34.0 size=       1kB time=00:00:03.20 bitrate=   1.8kbits/s speed=0.00621x    frame=  251 fps=0.5 q=34.0 size=       1kB time=00:00:03.22 bitrate=   1.8kbits/s speed=0.00603x    frame=  252 fps=0.5 q=34.0 size=       1kB time=00:00:03.24 bitrate=   1.8kbits/s speed=0.00604x    frame=  253 fps=0.5 q=34.0 size=       1kB time=00:00:03.26 bitrate=   1.8kbits/s speed=0.00606x    frame=  254 fps=0.5 q=34.0 size=       1kB time=00:00:03.28 bitrate=   1.8kbits/s speed=0.00609x    frame=  257 fps=0.5 q=34.0 size=       1kB time=00:00:03.34 bitrate=   1.8kbits/s speed=0.00605x    frame=  258 fps=0.5 q=34.0 size=       1kB time=00:00:03.36 bitrate=   1.8kbits/s speed=0.00605x    frame=  259 fps=0.5 q=34.0 size=    5135kB time=00:00:03.38 bitrate=12440.7kbits/s speed=0.00595x    frame=  260 fps=0.5 q=34.0 size=    5135kB time=00:00:03.40 bitrate=12367.6kbits/s speed=0.00596x    frame=  261 fps=0.5 q=34.0 size=    5135kB time=00:00:03.42 bitrate=12295.3kbits/s speed=0.00598x    frame=  264 fps=0.5 q=34.0 size=    5135kB time=00:00:03.48 bitrate=12083.4kbits/s speed=0.00604x    frame=  265 fps=0.4 q=34.0 size=    5135kB time=00:00:03.50 bitrate=12014.3kbits/s speed=0.00589x    frame=  266 fps=0.4 q=34.0 size=    5135kB time=00:00:03.52 bitrate=11946.1kbits/s speed=0.00591x    frame=  267 fps=0.4 q=34.0 size=    5135kB time=00:00:03.54 bitrate=11878.6kbits/s speed=0.00592x    frame=  270 fps=0.4 q=34.0 size=    5135kB time=00:00:03.60 bitrate=11680.7kbits/s speed=0.00586x    frame=  271 fps=0.4 q=34.0 size=    5135kB time=00:00:03.62 bitrate=11616.2kbits/s speed=0.00586x    frame=  272 fps=0.4 q=34.0 size=    5135kB time=00:00:03.64 bitrate=11552.4kbits/s speed=0.00587x    frame=  274 fps=0.4 q=34.0 size=    5135kB time=00:00:03.68 bitrate=11426.8kbits/s speed=0.00593x    frame=  276 fps=0.4 q=34.0 size=    5135kB time=00:00:03.72 bitrate=11304.0kbits/s speed=0.0058x    frame=  277 fps=0.4 q=34.0 size=    5135kB time=00:00:03.74 bitrate=11243.6kbits/s speed=0.00582x    frame=  278 fps=0.4 q=33.0 size=    5135kB time=00:00:03.76 bitrate=11183.8kbits/s speed=0.00582x    frame=  280 fps=0.4 q=34.0 size=    5135kB time=00:00:03.80 bitrate=11066.1kbits/s speed=0.00587x    frame=  282 fps=0.4 q=34.0 size=    5135kB time=00:00:03.84 bitrate=10950.8kbits/s speed=0.0058x    frame=  283 fps=0.4 q=33.0 size=    5135kB time=00:00:03.86 bitrate=10894.1kbits/s speed=0.00582x    frame=  284 fps=0.4 q=33.0 size=    5135kB time=00:00:03.88 bitrate=10838.0kbits/s speed=0.00572x    frame=  285 fps=0.4 q=33.0 size=    5135kB time=00:00:03.90 bitrate=10782.4kbits/s speed=0.00573x    frame=  286 fps=0.4 q=33.0 size=    5135kB time=00:00:03.92 bitrate=10727.4kbits/s speed=0.00575x    frame=  290 fps=0.4 q=33.0 size=    5135kB time=00:00:04.00 bitrate=10512.9kbits/s speed=0.00568x    frame=  291 fps=0.4 q=33.0 size=    5135kB time=00:00:04.02 bitrate=10460.6kbits/s speed=0.0057x    frame=  293 fps=0.4 q=33.0 size=    5135kB time=00:00:04.06 bitrate=10357.6kbits/s speed=0.00573x    frame=  295 fps=0.4 q=33.0 size=    5135kB time=00:00:04.10 bitrate=10256.6kbits/s speed=0.00578x    frame=  296 fps=0.4 q=33.0 size=    5135kB time=00:00:04.12 bitrate=10206.8kbits/s speed=0.00568x    frame=  297 fps=0.4 q=33.0 size=    5135kB time=00:00:04.14 bitrate=10157.5kbits/s speed=0.00559x    frame=  298 fps=0.4 q=33.0 size=    5135kB time=00:00:04.16 bitrate=10108.7kbits/s speed=0.00561x    frame=  299 fps=0.4 q=33.0 size=    5135kB time=00:00:04.18 bitrate=10060.3kbits/s speed=0.00562x    frame=  302 fps=0.4 q=33.0 size=    5135kB time=00:00:04.24 bitrate=9918.0kbits/s speed=0.00567x    frame=  303 fps=0.4 q=33.0 size=    5135kB time=00:00:04.26 bitrate=9871.4kbits/s speed=0.00558x    frame=  304 fps=0.4 q=33.0 size=    5135kB time=00:00:04.28 bitrate=9825.3kbits/s speed=0.00558x    frame=  305 fps=0.4 q=33.0 size=    5135kB time=00:00:04.30 bitrate=9779.6kbits/s speed=0.0056x    frame=  307 fps=0.4 q=33.0 size=    5135kB time=00:00:04.34 bitrate=9689.5kbits/s speed=0.00554x    frame=  308 fps=0.4 q=33.0 size=    5135kB time=00:00:04.36 bitrate=9645.1kbits/s speed=0.00555x    frame=  309 fps=0.4 q=33.0 size=    5135kB time=00:00:04.38 bitrate=9601.0kbits/s speed=0.00556x    frame=  310 fps=0.4 q=33.0 size=    5135kB time=00:00:04.40 bitrate=9557.4kbits/s speed=0.00556x    frame=  311 fps=0.4 q=33.0 size=    5135kB time=00:00:04.42 bitrate=9514.2kbits/s speed=0.00557x    frame=  313 fps=0.4 q=33.0 size=    5135kB time=00:00:04.46 bitrate=9428.9kbits/s speed=0.00553x    frame=  314 fps=0.4 q=33.0 size=    5135kB time=00:00:04.48 bitrate=9386.8kbits/s speed=0.00554x    frame=  315 fps=0.4 q=33.0 size=    5135kB time=00:00:04.50 bitrate=9345.1kbits/s speed=0.00555x    frame=  316 fps=0.4 q=33.0 size=    5135kB time=00:00:04.52 bitrate=9303.7kbits/s speed=0.00554x    frame=  317 fps=0.4 q=33.0 size=    5135kB time=00:00:04.54 bitrate=9262.8kbits/s speed=0.00555x    frame=  318 fps=0.4 q=33.0 size=    5135kB time=00:00:04.56 bitrate=9222.1kbits/s speed=0.00557x    frame=  319 fps=0.4 q=33.0 size=    5135kB time=00:00:04.58 bitrate=9181.9kbits/s speed=0.00543x    frame=  320 fps=0.4 q=33.0 size=    5135kB time=00:00:04.60 bitrate=9142.0kbits/s speed=0.00545x    frame=  321 fps=0.4 q=33.0 size=    5135kB time=00:00:04.62 bitrate=9102.4kbits/s speed=0.00546x    frame=  323 fps=0.4 q=33.0 size=    5135kB time=00:00:04.66 bitrate=9024.3kbits/s speed=0.0055x    frame=  325 fps=0.4 q=33.0 size=    5135kB time=00:00:04.70 bitrate=8947.5kbits/s speed=0.00544x    frame=  326 fps=0.4 q=33.0 size=    5135kB time=00:00:04.72 bitrate=8909.6kbits/s speed=0.00544x    frame=  327 fps=0.4 q=33.0 size=    5135kB time=00:00:04.74 bitrate=8872.0kbits/s speed=0.00545x    frame=  328 fps=0.4 q=33.0 size=    5135kB time=00:00:04.76 bitrate=8834.7kbits/s speed=0.00547x    frame=  329 fps=0.4 q=33.0 size=    5135kB time=00:00:04.78 bitrate=8797.8kbits/s speed=0.00539x    frame=  330 fps=0.4 q=33.0 size=    5135kB time=00:00:04.80 bitrate=8761.1kbits/s speed=0.0054x    frame=  331 fps=0.4 q=33.0 size=    5135kB time=00:00:04.82 bitrate=8724.8kbits/s speed=0.00542x    frame=  332 fps=0.4 q=30.0 size=    5135kB time=00:00:04.84 bitrate=8688.7kbits/s speed=0.00542x    frame=  335 fps=0.4 q=34.0 size=    5135kB time=00:00:04.90 bitrate=8582.4kbits/s speed=0.00542x    frame=  336 fps=0.4 q=34.0 size=    5135kB time=00:00:04.92 bitrate=8547.5kbits/s speed=0.00543x    frame=  337 fps=0.4 q=34.0 size=    7287kB time=00:00:04.94 bitrate=12081.7kbits/s speed=0.00544x    frame=  341 fps=0.4 q=34.0 size=    7287kB time=00:00:05.02 bitrate=11889.2kbits/s speed=0.00549x    frame=  342 fps=0.4 q=34.0 size=    7287kB time=00:00:05.04 bitrate=11842.1kbits/s speed=0.0055x    frame=  343 fps=0.4 q=35.0 size=    7287kB time=00:00:05.06 bitrate=11795.3kbits/s speed=0.0055x    frame=  347 fps=0.4 q=34.0 size=    7287kB time=00:00:05.14 bitrate=11611.7kbits/s speed=0.00558x    frame=  348 fps=0.4 q=34.0 size=    7287kB time=00:00:05.16 bitrate=11566.7kbits/s speed=0.00559x    frame=  349 fps=0.4 q=34.0 size=    7287kB time=00:00:05.18 bitrate=11522.1kbits/s speed=0.00556x    frame=  350 fps=0.4 q=34.0 size=    7287kB time=00:00:05.20 bitrate=11477.8kbits/s speed=0.00558x    frame=  351 fps=0.4 q=34.0 size=    7287kB time=00:00:05.22 bitrate=11433.8kbits/s speed=0.00559x    frame=  355 fps=0.4 q=35.0 size=    7287kB time=00:00:05.30 bitrate=11261.2kbits/s speed=0.00561x    frame=  356 fps=0.4 q=34.0 size=    7287kB time=00:00:05.32 bitrate=11218.9kbits/s speed=0.00562x    frame=  357 fps=0.4 q=34.0 size=    7287kB time=00:00:05.34 bitrate=11176.9kbits/s speed=0.00563x    frame=  359 fps=0.4 q=34.0 size=    7287kB time=00:00:05.38 bitrate=11093.8kbits/s speed=0.00564x    frame=  360 fps=0.4 q=34.0 size=    7287kB time=00:00:05.40 bitrate=11052.7kbits/s speed=0.00566x    frame=  361 fps=0.4 q=34.0 size=    7287kB time=00:00:05.42 bitrate=11012.0kbits/s speed=0.00566x    frame=  362 fps=0.4 q=34.0 size=    7287kB time=00:00:05.44 bitrate=10971.5kbits/s speed=0.00566x    frame=  364 fps=0.4 q=34.0 size=    7287kB time=00:00:05.48 bitrate=10891.4kbits/s speed=0.0057x    frame=  365 fps=0.4 q=34.0 size=    7287kB time=00:00:05.50 bitrate=10851.8kbits/s speed=0.00567x    frame=  367 fps=0.4 q=34.0 size=    7287kB time=00:00:05.54 bitrate=10773.5kbits/s speed=0.00571x    frame=  368 fps=0.4 q=34.0 size=    7287kB time=00:00:05.56 bitrate=10734.7kbits/s speed=0.00571x    frame=  370 fps=0.4 q=34.0 size=    7287kB time=00:00:05.60 bitrate=10658.1kbits/s speed=0.00574x    frame=  371 fps=0.4 q=34.0 size=    7287kB time=00:00:05.62 bitrate=10620.1kbits/s speed=0.00571x    frame=  373 fps=0.4 q=34.0 size=    7287kB time=00:00:05.66 bitrate=10545.1kbits/s speed=0.00574x    frame=  374 fps=0.4 q=34.0 size=    7287kB time=00:00:05.68 bitrate=10508.0kbits/s speed=0.00569x    frame=  375 fps=0.4 q=34.0 size=    7287kB time=00:00:05.70 bitrate=10471.1kbits/s speed=0.00571x    frame=  376 fps=0.4 q=34.0 size=    7287kB time=00:00:05.72 bitrate=10434.5kbits/s speed=0.00572x    frame=  380 fps=0.4 q=34.0 size=    7287kB time=00:00:05.80 bitrate=10290.6kbits/s speed=0.00572x    frame=  382 fps=0.4 q=34.0 size=    7287kB time=00:00:05.84 bitrate=10220.1kbits/s speed=0.00576x    frame=  385 fps=0.4 q=34.0 size=    7287kB time=00:00:05.90 bitrate=10116.2kbits/s speed=0.00581x    frame=  386 fps=0.4 q=34.0 size=    7287kB time=00:00:05.92 bitrate=10082.1kbits/s speed=0.00574x    frame=  388 fps=0.4 q=34.0 size=    7287kB time=00:00:05.96 bitrate=10014.4kbits/s speed=0.00578x    frame=  389 fps=0.4 q=34.0 size=    7287kB time=00:00:05.98 bitrate=9980.9kbits/s speed=0.00574x    frame=  390 fps=0.4 q=34.0 size=    7287kB time=00:00:06.00 bitrate=9947.6kbits/s speed=0.00576x    frame=  391 fps=0.4 q=34.0 size=    7287kB time=00:00:06.02 bitrate=9914.6kbits/s speed=0.00577x    frame=  392 fps=0.4 q=34.0 size=    7287kB time=00:00:06.04 bitrate=9881.8kbits/s speed=0.00577x    frame=  394 fps=0.4 q=34.0 size=    7287kB time=00:00:06.08 bitrate=9816.8kbits/s speed=0.00579x    frame=  395 fps=0.4 q=34.0 size=    7287kB time=00:00:06.10 bitrate=9784.6kbits/s speed=0.00574x    frame=  396 fps=0.4 q=34.0 size=    7287kB time=00:00:06.12 bitrate=9752.6kbits/s speed=0.00575x    frame=  398 fps=0.4 q=34.0 size=    7287kB time=00:00:06.16 bitrate=9689.3kbits/s speed=0.00577x    frame=  399 fps=0.4 q=34.0 size=    7287kB time=00:00:06.18 bitrate=9658.0kbits/s speed=0.00578x    frame=  400 fps=0.4 q=34.0 size=    7287kB time=00:00:06.20 bitrate=9626.8kbits/s speed=0.00579x    frame=  401 fps=0.4 q=34.0 size=    7287kB time=00:00:06.22 bitrate=9595.9kbits/s speed=0.00575x    frame=  402 fps=0.4 q=34.0 size=    7287kB time=00:00:06.24 bitrate=9565.1kbits/s speed=0.00576x    frame=  403 fps=0.4 q=34.0 size=    7287kB time=00:00:06.26 bitrate=9534.6kbits/s speed=0.00573x    frame=  404 fps=0.4 q=34.0 size=    7287kB time=00:00:06.28 bitrate=9504.2kbits/s speed=0.00574x    frame=  405 fps=0.4 q=34.0 size=    7287kB time=00:00:06.30 bitrate=9474.0kbits/s speed=0.00575x    frame=  407 fps=0.4 q=34.0 size=    7287kB time=00:00:06.34 bitrate=9414.3kbits/s speed=0.00576x    frame=  409 fps=0.4 q=34.0 size=    7287kB time=00:00:06.38 bitrate=9355.2kbits/s speed=0.00572x    frame=  410 fps=0.4 q=34.0 size=    7287kB time=00:00:06.40 bitrate=9326.0kbits/s speed=0.00573x    frame=  411 fps=0.4 q=34.0 size=    7287kB time=00:00:06.42 bitrate=9297.0kbits/s speed=0.00574x    frame=  413 fps=0.4 q=34.0 size=    7287kB time=00:00:06.46 bitrate=9239.4kbits/s speed=0.00576x    frame=  414 fps=0.4 q=34.0 size=    7287kB time=00:00:06.48 bitrate=9210.9kbits/s speed=0.00577x    frame=  415 fps=0.4 q=34.0 size=    7287kB time=00:00:06.50 bitrate=9182.6kbits/s speed=0.00573x    frame=  416 fps=0.4 q=34.0 size=    7287kB time=00:00:06.52 bitrate=9154.4kbits/s speed=0.00568x    frame=  417 fps=0.4 q=34.0 size=    7287kB time=00:00:06.54 bitrate=9126.4kbits/s speed=0.00569x    frame=  418 fps=0.4 q=34.0 size=    7287kB time=00:00:06.56 bitrate=9098.6kbits/s speed=0.0057x    frame=  421 fps=0.4 q=34.0 size=    7287kB time=00:00:06.62 bitrate=9016.1kbits/s speed=0.00572x    frame=  422 fps=0.4 q=34.0 size=    7287kB time=00:00:06.64 bitrate=8989.0kbits/s speed=0.00566x    frame=  424 fps=0.4 q=34.0 size=    7287kB time=00:00:06.68 bitrate=8935.2kbits/s speed=0.00568x    frame=  427 fps=0.4 q=34.0 size=    7287kB time=00:00:06.74 bitrate=8855.6kbits/s speed=0.00563x    frame=  428 fps=0.4 q=34.0 size=    7287kB time=00:00:06.76 bitrate=8829.4kbits/s speed=0.00564x    frame=  429 fps=0.4 q=34.0 size=    7287kB time=00:00:06.78 bitrate=8803.4kbits/s speed=0.00565x    frame=  430 fps=0.4 q=34.0 size=    7287kB time=00:00:06.80 bitrate=8777.5kbits/s speed=0.00566x    frame=  433 fps=0.4 q=34.0 size=    7287kB time=00:00:06.86 bitrate=8700.7kbits/s speed=0.00563x    frame=  434 fps=0.4 q=34.0 size=    7287kB time=00:00:06.88 bitrate=8675.5kbits/s speed=0.00564x    frame=  435 fps=0.4 q=34.0 size=    7287kB time=00:00:06.90 bitrate=8650.3kbits/s speed=0.00565x    frame=  436 fps=0.4 q=34.0 size=    7287kB time=00:00:06.92 bitrate=8625.3kbits/s speed=0.00565x    frame=  438 fps=0.4 q=34.0 size=    7287kB time=00:00:06.96 bitrate=8575.8kbits/s speed=0.00561x    frame=  439 fps=0.4 q=34.0 size=    7287kB time=00:00:06.98 bitrate=8551.2kbits/s speed=0.0056x    frame=  440 fps=0.4 q=34.0 size=    7287kB time=00:00:07.00 bitrate=8526.8kbits/s speed=0.00561x    frame=  441 fps=0.4 q=33.0 size=    7287kB time=00:00:07.02 bitrate=8502.5kbits/s speed=0.00562x    frame=  444 fps=0.4 q=33.0 size=    7287kB time=00:00:07.08 bitrate=8430.4kbits/s speed=0.00561x    frame=  445 fps=0.4 q=33.0 size=    7287kB time=00:00:07.10 bitrate=8406.7kbits/s speed=0.0056x    frame=  446 fps=0.4 q=33.0 size=    7287kB time=00:00:07.12 bitrate=8383.1kbits/s speed=0.00561x    frame=  447 fps=0.4 q=33.0 size=    7287kB time=00:00:07.14 bitrate=8359.6kbits/s speed=0.00561x    frame=  448 fps=0.3 q=33.0 size=    7287kB time=00:00:07.16 bitrate=8336.2kbits/s speed=0.00556x    frame=  449 fps=0.3 q=33.0 size=    7287kB time=00:00:07.18 bitrate=8313.0kbits/s speed=0.00557x    frame=  450 fps=0.3 q=33.0 size=    7287kB time=00:00:07.20 bitrate=8289.9kbits/s speed=0.00558x    frame=  451 fps=0.3 q=33.0 size=    7287kB time=00:00:07.22 bitrate=8267.0kbits/s speed=0.00559x    frame=  452 fps=0.3 q=33.0 size=    7287kB time=00:00:07.24 bitrate=8244.1kbits/s speed=0.0056x    frame=  453 fps=0.3 q=33.0 size=    7287kB time=00:00:07.26 bitrate=8221.4kbits/s speed=0.00559x    frame=  454 fps=0.3 q=33.0 size=    7287kB time=00:00:07.28 bitrate=8198.9kbits/s speed=0.00556x    frame=  455 fps=0.3 q=33.0 size=    7287kB time=00:00:07.30 bitrate=8176.4kbits/s speed=0.00557x    frame=  457 fps=0.3 q=33.0 size=    7287kB time=00:00:07.34 bitrate=8131.8kbits/s speed=0.00559x    frame=  458 fps=0.3 q=33.0 size=    7287kB time=00:00:07.36 bitrate=8109.7kbits/s speed=0.00552x    frame=  459 fps=0.3 q=33.0 size=    7287kB time=00:00:07.38 bitrate=8087.8kbits/s speed=0.00553x    frame=  460 fps=0.3 q=33.0 size=    7287kB time=00:00:07.40 bitrate=8065.9kbits/s speed=0.00554x    frame=  461 fps=0.3 q=33.0 size=    7287kB time=00:00:07.42 bitrate=8044.2kbits/s speed=0.00555x    frame=  463 fps=0.3 q=33.0 size=    7287kB time=00:00:07.46 bitrate=8001.0kbits/s speed=0.00558x    frame=  464 fps=0.3 q=33.0 size=    7287kB time=00:00:07.48 bitrate=7979.7kbits/s speed=0.00552x    frame=  465 fps=0.3 q=33.0 size=    7287kB time=00:00:07.50 bitrate=7958.4kbits/s speed=0.00553x    frame=  466 fps=0.3 q=33.0 size=    7287kB time=00:00:07.52 bitrate=7937.2kbits/s speed=0.00553x    frame=  468 fps=0.3 q=33.0 size=    7287kB time=00:00:07.56 bitrate=7895.2kbits/s speed=0.0055x    frame=  469 fps=0.3 q=33.0 size=    7287kB time=00:00:07.58 bitrate=7874.4kbits/s speed=0.00551x    frame=  470 fps=0.3 q=33.0 size=    7287kB time=00:00:07.60 bitrate=7853.7kbits/s speed=0.00552x    frame=  471 fps=0.3 q=33.0 size=    7287kB time=00:00:07.62 bitrate=7833.1kbits/s speed=0.00553x    frame=  472 fps=0.3 q=33.0 size=    7287kB time=00:00:07.64 bitrate=7812.6kbits/s speed=0.00554x    frame=  474 fps=0.3 q=33.0 size=    7287kB time=00:00:07.68 bitrate=7771.9kbits/s speed=0.00548x    frame=  476 fps=0.3 q=33.0 size=    7287kB time=00:00:07.72 bitrate=7731.6kbits/s speed=0.00551x    frame=  477 fps=0.3 q=33.0 size=    7287kB time=00:00:07.74 bitrate=7711.6kbits/s speed=0.00552x    frame=  478 fps=0.3 q=33.0 size=    7287kB time=00:00:07.76 bitrate=7691.8kbits/s speed=0.00552x    frame=  479 fps=0.3 q=33.0 size=    7287kB time=00:00:07.78 bitrate=7672.0kbits/s speed=0.00553x    frame=  480 fps=0.3 q=33.0 size=    7287kB time=00:00:07.80 bitrate=7652.3kbits/s speed=0.00545x    frame=  481 fps=0.3 q=33.0 size=    7287kB time=00:00:07.82 bitrate=7632.8kbits/s speed=0.00546x    frame=  482 fps=0.3 q=33.0 size=    7287kB time=00:00:07.84 bitrate=7613.3kbits/s speed=0.00547x    frame=  486 fps=0.3 q=33.0 size=    7287kB time=00:00:07.92 bitrate=7536.4kbits/s speed=0.00544x    frame=  487 fps=0.3 q=33.0 size=    7287kB time=00:00:07.94 bitrate=7517.4kbits/s speed=0.00545x    frame=  492 fps=0.3 q=33.0 size=    7287kB time=00:00:08.04 bitrate=7423.9kbits/s speed=0.00545x    frame=  494 fps=0.3 q=33.0 size=    7287kB time=00:00:08.08 bitrate=7387.2kbits/s speed=0.00547x    frame=  495 fps=0.3 q=33.0 size=   12527kB time=00:00:08.10 bitrate=12667.8kbits/s speed=0.00543x    frame=  496 fps=0.3 q=33.0 size=   12527kB time=00:00:08.12 bitrate=12636.6kbits/s speed=0.00543x    frame=  497 fps=0.3 q=33.0 size=   12527kB time=00:00:08.14 bitrate=12605.6kbits/s speed=0.00544x    frame=  500 fps=0.3 q=33.0 size=   12527kB time=00:00:08.20 bitrate=12513.4kbits/s speed=0.0054x    frame=  500 fps=0.3 q=-1.0 Lsize=   15688kB time=00:00:09.94 bitrate=12927.8kbits/s speed=0.0053x    
video:15683kB audio:0kB subtitle:0kB other streams:0kB global headers:0kB muxing overhead: 0.029440%
bench: utime=7321.828s
bench: maxrss=6468004kB
[libx264 @ 0x3292120] frame I:3     Avg QP:28.69  size:813623
[libx264 @ 0x3292120] frame P:45    Avg QP:33.56  size:110463
[libx264 @ 0x3292120] frame B:452   Avg QP:36.26  size: 19131
[libx264 @ 0x3292120] consecutive B-frames:  0.6%  0.0%  0.0%  0.0%  0.0%  0.0%  1.4%  3.2%  7.2% 30.0% 19.8%  9.6%  5.2% 14.0%  9.0%  0.0%  0.0%
[libx264 @ 0x3292120] mb I  I16..4:  9.5% 86.1%  4.4%
[libx264 @ 0x3292120] mb P  I16..4:  0.0%  0.5%  0.0%  P16..4: 41.2% 29.8%  7.7%  1.4%  0.0%    skip:19.2%
[libx264 @ 0x3292120] mb B  I16..4:  0.0%  0.0%  0.0%  B16..8: 44.1%  4.2%  0.1%  direct: 0.2%  skip:51.5%  L0:52.8% L1:47.0% BI: 0.2%
[libx264 @ 0x3292120] final ratefactor: 25.78
[libx264 @ 0x3292120] 8x8 transform intra:86.4% inter:64.5%
[libx264 @ 0x3292120] direct mvs  spatial:98.7% temporal:1.3%
[libx264 @ 0x3292120] coded y,uvDC,uvAC intra: 96.6% 85.8% 71.6% inter: 2.1% 1.5% 0.0%
[libx264 @ 0x3292120] i16 v,h,dc,p: 18% 26% 28% 27%
[libx264 @ 0x3292120] i8 v,h,dc,ddl,ddr,vr,hd,vl,hu:  5%  7%  2% 14% 18% 14% 18% 10% 12%
[libx264 @ 0x3292120] i4 v,h,dc,ddl,ddr,vr,hd,vl,hu:  3%  4%  1% 13% 17% 15% 20% 11% 16%
[libx264 @ 0x3292120] i8c dc,h,v,p: 50% 22% 14% 14%
[libx264 @ 0x3292120] Weighted P-Frames: Y:4.4% UV:2.2%
[libx264 @ 0x3292120] ref P L0: 57.1% 13.7% 13.9%  3.7%  3.0%  2.4%  2.2%  0.6%  0.6%  0.5%  0.5%  0.4%  0.4%  0.4%  0.4%  0.1%
[libx264 @ 0x3292120] ref B L0: 76.6%  7.9%  6.5%  1.9%  1.7%  1.5%  1.4%  0.4%  0.4%  0.4%  0.4%  0.3%  0.3%  0.2%  0.0%
[libx264 @ 0x3292120] ref B L1: 93.2%  6.8%
[libx264 @ 0x3292120] kb/s:12847.22
